<?xml version="1.0" encoding="UTF-8"?>
<svg width="50px" height="50px" viewBox="0 0 97 97" version="1.1" xmlns="http://www.w3.org/2000/svg" xmlns:xlink="http://www.w3.org/1999/xlink">
    <!-- Generator: Sketch 51 (57462) - http://www.bohemiancoding.com/sketch -->
    <title>icn_delete</title>
    <desc>Created with Sketch.</desc>
    <defs></defs>
    <g id="icn_delete" stroke="none" stroke-width="1" fill="none" fill-rule="evenodd">
        <g id="Group-15" transform="translate(1.000000, 1.000000)">
            <path d="M47.5,95 C73.733,95 95,73.733 95,47.5 C95,21.267 73.733,0 47.5,0 C21.267,0 0,21.267 0,47.5 C0,73.733 21.267,95 47.5,95" id="Fill-1" fill="#F1F4F8"></path>
            <path d="M61.6479,65.9824 C61.6309,65.9954 61.6129,66.0064 61.5959,66.0184 C61.4249,66.1324 61.2369,66.2234 61.0499,66.3134 C60.8749,66.3724 60.6959,66.4194 60.5139,66.4584 C60.1929,66.4804 59.8739,66.4844 59.5509,66.4844 L57.6199,66.4844 L51.0439,66.4844 L43.0469,66.4844 L36.1509,66.4844 C35.0939,66.4844 34.0369,66.4904 32.9799,66.4844 C32.8599,66.4844 32.7409,66.4684 32.6219,66.4594 C32.4319,66.4194 32.2439,66.3694 32.0589,66.3074 C31.8729,66.2184 31.6859,66.1304 31.5139,66.0184 C31.4929,66.0034 31.4709,65.9894 31.4489,65.9744 C31.3719,65.9064 31.2939,65.8374 31.2179,65.7674 C31.1339,65.6824 31.0549,65.5924 30.9769,65.5074 C30.9709,65.5004 30.9649,65.4924 30.9599,65.4844 C30.8379,65.3034 30.7459,65.1114 30.6529,64.9204 C30.5949,64.7454 30.5459,64.5674 30.5079,64.3864 C30.4829,64.0394 30.4819,63.6904 30.4819,63.3444 L30.4819,61.1794 L30.4819,53.8184 L30.4819,44.8274 L30.4819,36.9554 C30.4819,36.2984 30.4909,35.6394 30.4959,34.9794 L32.1549,34.9794 L40.7129,34.9794 L51.0689,34.9794 L60.0549,34.9794 C60.8989,34.9794 61.7449,34.9854 62.5899,34.9874 L62.5899,36.2384 L62.5899,43.7444 L62.5899,52.7424 L62.5899,60.4814 C62.5899,61.6654 62.5969,62.8404 62.5899,64.0244 C62.5899,64.1484 62.5749,64.2684 62.5649,64.3894 C62.5259,64.5784 62.4759,64.7624 62.4149,64.9434 C62.3289,65.1274 62.2429,65.3114 62.1309,65.4844 C62.1239,65.4944 62.1159,65.5064 62.1079,65.5174 C62.0329,65.6014 61.9629,65.6894 61.8789,65.7674 C61.8039,65.8424 61.7249,65.9104 61.6479,65.9824 M66.3529,33.0914 C66.3529,33.0754 66.3479,33.0594 66.3469,33.0424 C66.3339,32.7034 66.2239,32.3724 66.0379,32.0864 C65.7069,31.5614 65.1439,31.2044 64.4649,31.2044 L60.9039,31.2044 L52.3469,31.2044 L41.9899,31.2044 L33.0049,31.2044 C31.5579,31.2044 30.1049,31.1794 28.6569,31.2044 L28.5939,31.2044 C27.5749,31.2044 26.7069,32.0664 26.7069,33.0914 L26.7069,35.0304 L26.7069,39.9374 L26.7069,46.5504 L26.7069,53.5094 L26.7069,59.5444 L26.7069,63.3634 L26.7069,64.0174 C26.7189,65.7484 27.4549,67.5164 28.7829,68.6554 C29.9789,69.6744 31.4259,70.2474 33.0049,70.2534 L33.9049,70.2534 L38.3219,70.2534 L44.8589,70.2534 L51.7739,70.2534 L57.4379,70.2534 L60.1109,70.2534 C61.7099,70.2474 63.2199,69.6494 64.3969,68.5734 C65.6549,67.4164 66.3409,65.7114 66.3529,64.0174 C66.3589,63.2624 66.3529,62.5134 66.3529,61.7584 L66.3529,56.6494 L66.3529,49.9484 L66.3529,43.0214 L66.3529,37.1134 L66.3529,33.5834 L66.3529,33.1044 C66.3529,33.1024 66.3529,33.1014 66.3529,33.0994 C66.3529,33.0964 66.3539,33.0944 66.3529,33.0914" id="Fill-3" fill="#FF0000"></path>
            <path d="M49.4463,31.2109 L39.7883,31.2109 L39.4583,31.2109 C39.4523,30.7739 39.4523,30.3319 39.4903,29.8949 C39.5283,29.7159 39.5753,29.5399 39.6333,29.3679 C39.7223,29.1819 39.8133,28.9939 39.9263,28.8189 C39.9343,28.8089 39.9413,28.7969 39.9493,28.7859 C40.0253,28.7019 40.1003,28.6139 40.1773,28.5369 C40.2533,28.4609 40.3323,28.3949 40.4093,28.3209 C40.4263,28.3089 40.4443,28.2969 40.4613,28.2849 C40.6363,28.1719 40.8233,28.0809 41.0093,27.9919 C41.1843,27.9339 41.3623,27.8849 41.5433,27.8479 C41.9163,27.8189 42.2933,27.8189 42.6633,27.8189 L44.9603,27.8189 L50.1703,27.8189 C50.6223,27.8189 51.0773,27.8129 51.5283,27.8489 C51.7073,27.8859 51.8833,27.9339 52.0563,27.9919 C52.2423,28.0809 52.4293,28.1719 52.6053,28.2849 C52.6153,28.2929 52.6273,28.2999 52.6383,28.3079 C52.7233,28.3849 52.8103,28.4589 52.8883,28.5369 C52.9633,28.6119 53.0303,28.6909 53.1033,28.7689 C53.1153,28.7849 53.1283,28.8029 53.1393,28.8189 C53.2533,28.9939 53.3433,29.1819 53.4323,29.3679 C53.4983,29.5639 53.5503,29.7619 53.5903,29.9649 C53.5983,30.0639 53.6183,30.1629 53.6183,30.2609 L53.6183,31.2109 L49.4463,31.2109 Z M57.3933,31.2168 L59.7907,31.2168 L64.6667,31.2168 L67.9447,31.2168 L69.1597,31.2168 C70.2167,31.2168 71.0027,32.0848 71.0467,33.1048 C71.0917,34.1238 70.1477,34.9918 69.1597,34.9918 L69.0837,34.9918 C68.4987,34.9988 67.9077,34.9918 67.3227,34.9918 L63.5907,34.9918 L58.4307,34.9918 L52.2967,34.9918 L45.7217,34.9918 L39.2337,34.9918 L33.2817,34.9918 L28.4057,34.9918 L25.1267,34.9918 L23.9127,34.9918 C22.8557,34.9918 22.0697,34.1298 22.0257,33.1048 C21.9807,32.0848 22.9247,31.2168 23.9127,31.2168 L23.9887,31.2168 C24.5737,31.2108 25.1647,31.2168 25.7497,31.2168 L29.4817,31.2168 L34.6407,31.2168 L35.6663375,31.2168 C35.6707983,29.6501502 35.8144467,28.0829441 36.7613,26.7689 C37.7243,25.4289 39.1273,24.4019 40.7943,24.1449 C41.4113,24.0509 41.9903,24.0379 42.6003,24.0379 L47.5713,24.0379 C48.7663,24.0379 49.9683,24.0249 51.1643,24.0379 C52.7683,24.0509 54.2853,24.6599 55.4553,25.7489 C56.6913,26.8979 57.3693,28.5709 57.3923,30.2459 C57.3923,30.2489 57.3933,30.2519 57.3933,30.2539 L57.3933,31.2168 Z" id="Combined-Shape" fill="#FF0000"></path>
            <path d="M44.7271,42.0273 L44.7271,47.9283 L44.7271,57.3233 L44.7271,59.4623 C44.7271,60.4503 45.5951,61.3943 46.6151,61.3493 C47.6411,61.3053 48.5021,60.5193 48.5021,59.4623 L48.5021,53.5603 L48.5021,44.1663 L48.5021,42.0273 C48.5021,41.0393 47.6341,40.0953 46.6151,40.1393 C45.5891,40.1833 44.7271,40.9693 44.7271,42.0273" id="Fill-9" fill="#FF0000"></path>
            <path d="M36.0566,44.4365 L36.0566,48.7035 L36.0566,55.4985 L36.0566,57.0525 C36.0566,58.0405 36.9246,58.9845 37.9446,58.9405 C38.9696,58.8965 39.8316,58.1095 39.8316,57.0525 L39.8316,52.7865 L39.8316,45.9915 L39.8316,44.4365 C39.8316,43.4495 38.9636,42.5045 37.9446,42.5485 C36.9246,42.5925 36.0566,43.3795 36.0566,44.4365" id="Fill-11" fill="#FF0000"></path>
            <path d="M53.3975,44.4365 L53.3975,48.7035 L53.3975,55.4985 L53.3975,57.0525 C53.3975,58.0405 54.2665,58.9845 55.2855,58.9405 C56.3115,58.8965 57.1725,58.1095 57.1725,57.0525 L57.1725,52.7865 L57.1725,45.9915 L57.1725,44.4365 C57.1725,43.4495 56.3045,42.5045 55.2855,42.5485 C54.2595,42.5925 53.3975,43.3795 53.3975,44.4365" id="Fill-13" fill="#FF0000"></path>
        </g>
    </g>
</svg>