<?xml version="1.0" encoding="UTF-8"?>
<svg width="44px" height="44px" viewBox="0 0 44 44" version="1.1" xmlns="http://www.w3.org/2000/svg" xmlns:xlink="http://www.w3.org/1999/xlink">
    <!-- Generator: Sketch 51.3 (57544) - http://www.bohemiancoding.com/sketch -->
    <title>icn_filledclose</title>
    <desc>Created with Sketch.</desc>
    <defs>
        <polygon id="path-1" points="0 0 42 0 42 41.9999 0 41.9999"></polygon>
        <path d="M9.068,0.567 L5.707,3.928 L2.348,0.567 C1.867,0.088 1.148,0.088 0.667,0.567 C0.188,1.048 0.188,1.768 0.667,2.248 L4.128,5.708 L0.667,9.167 C0.188,9.647 0.188,10.367 0.667,10.848 C1.148,11.327 1.867,11.327 2.348,10.848 L5.707,7.487 L9.068,10.848 C9.548,11.327 10.268,11.327 10.747,10.848 C11.228,10.367 11.228,9.647 10.747,9.167 L7.287,5.708 L10.747,2.248 C11.228,1.768 11.228,1.048 10.747,0.567 C10.507,0.328 10.207,0.208 9.908,0.208 C9.608,0.208 9.308,0.328 9.068,0.567 Z" id="path-3"></path>
    </defs>
    <g id="icn_filledclose" stroke="none" stroke-width="1" fill="none" fill-rule="evenodd">
        <g id="Group-12" transform="translate(1.000000, 1.000000)">
            <g id="Group-6">
                <g id="Group-3">
                    <mask id="mask-2" fill="white">
                        <use xlink:href="#path-1"></use>
                    </mask>
                    <g id="Clip-2"></g>
                    <path d="M21,41.9999 C32.598,41.9999 42,32.5979 42,20.9999 C42,9.4019 32.598,-0.0001 21,-0.0001 C9.402,-0.0001 0,9.4019 0,20.9999 C0,32.5979 9.402,41.9999 21,41.9999" id="Fill-1" fill="#FF0000" mask="url(#mask-2)"></path>
                </g>
                <path d="M19.1279,20.7079 L15.6669,17.2479 C15.1879,16.7679 15.1879,16.0479 15.6669,15.5669 C16.1479,15.0879 16.8669,15.0879 17.3479,15.5669 L20.7069,18.9279 L24.0669,15.5669 C24.5479,15.0879 25.2679,15.0879 25.7469,15.5669 C26.2279,16.0479 26.2279,16.7679 25.7469,17.2479 L22.2869,20.7079 L25.7469,24.1679 C26.2279,24.6469 26.2279,25.3669 25.7469,25.8479 C25.2679,26.3269 24.5479,26.3269 24.0669,25.8479 L20.7069,22.4869 L17.3479,25.8479 C16.8669,26.3269 16.1479,26.3269 15.6669,25.8479 C15.1879,25.3669 15.1879,24.6469 15.6669,24.1679 L19.1279,20.7079 Z" id="Fill-4" fill="#FFFFFF"></path>
            </g>
            <g id="Group-9" transform="translate(15.000000, 15.000000)">
                <mask id="mask-4" fill="white">
                    <use xlink:href="#path-3"></use>
                </mask>
                <g id="Clip-8"></g>
                <polygon id="Fill-7" fill="#FFFFFF" mask="url(#mask-4)" points="-4.692 16.208 16.108 16.208 16.108 -4.792 -4.692 -4.792"></polygon>
            </g>
            <path d="M19.1279,20.7079 L15.6669,17.2479 C15.1879,16.7679 15.1879,16.0479 15.6669,15.5669 C16.1479,15.0879 16.8669,15.0879 17.3479,15.5669 L20.7069,18.9279 L24.0669,15.5669 C24.5479,15.0879 25.2679,15.0879 25.7469,15.5669 C26.2279,16.0479 26.2279,16.7679 25.7469,17.2479 L22.2869,20.7079 L25.7469,24.1679 C26.2279,24.6469 26.2279,25.3669 25.7469,25.8479 C25.2679,26.3269 24.5479,26.3269 24.0669,25.8479 L20.7069,22.4869 L17.3479,25.8479 C16.8669,26.3269 16.1479,26.3269 15.6669,25.8479 C15.1879,25.3669 15.1879,24.6469 15.6669,24.1679 L19.1279,20.7079 Z" id="Fill-10" fill="#FFFFFF"></path>
        </g>
    </g>
</svg>