<?xml version="1.0" encoding="UTF-8"?>
<svg width="19px" height="19px" viewBox="0 0 19 19" version="1.1" xmlns="http://www.w3.org/2000/svg" xmlns:xlink="http://www.w3.org/1999/xlink">
    <!-- Generator: Sketch 51 (57462) - http://www.bohemiancoding.com/sketch -->
    <title>icn_edit</title>
    <desc>Created with Sketch.</desc>
    <defs></defs>
    <g id="icn_edit" stroke="none" stroke-width="1" fill="none" fill-rule="evenodd">
        <g id="Group" transform="translate(1.000000, 1.000000)" fill="#969BA0">
            <path d="M14.2744,2.2007 L14.8054,2.7317 C14.6584,2.8787 14.5114,3.0257 14.3644,3.1737 L13.7694,2.5787 C13.9184,2.4307 14.0644,2.2837 14.2124,2.1367 C14.2334,2.1577 14.2534,2.1797 14.2744,2.2007 Z M12.5914,4.9447 C11.8514,5.6857 11.1094,6.4287 10.3674,7.1687 C9.7264,7.8087 9.0844,8.4507 8.4444,9.0917 C8.2184,9.3167 7.9944,9.5407 7.7694,9.7657 C7.5704,9.7667 7.3704,9.7687 7.1704,9.7697 C7.1714,9.5707 7.1734,9.3717 7.1754,9.1717 L7.6704,8.6767 C8.2884,8.0587 8.9074,7.4397 9.5244,6.8217 C10.2674,6.0797 11.0074,5.3397 11.7504,4.5967 L12.4064,3.9407 C12.6054,4.1387 12.8034,4.3377 13.0024,4.5357 C12.8654,4.6727 12.7284,4.8087 12.5914,4.9447 Z M8.3634,5.2677 C7.8824,5.7497 7.4034,6.2277 6.9224,6.7087 L5.8954,7.7357 L5.6194,8.0127 L5.5534,8.0777 C5.3674,8.2677 5.2674,8.5127 5.2574,8.7797 C5.2364,9.3727 5.2484,9.9667 5.2424,10.5587 C5.2424,10.6207 5.2404,10.6817 5.2404,10.7417 C5.2364,11.2597 5.6844,11.7067 6.2014,11.7027 C6.6674,11.6987 7.1324,11.6947 7.5974,11.6917 C7.7864,11.6897 7.9744,11.6917 8.1634,11.6877 C8.4554,11.6797 8.7014,11.5547 8.9014,11.3567 L10.3114,9.9467 C11.1454,9.1107 11.9824,8.2737 12.8174,7.4377 C13.5524,6.7027 14.2864,5.9687 15.0214,5.2327 C15.0284,5.2267 15.0374,5.2247 15.0444,5.2187 C15.4904,4.7717 15.9344,4.3277 16.3804,3.8827 C16.4424,3.8197 16.5054,3.7577 16.5674,3.6947 C16.5704,3.6917 16.5714,3.6867 16.5744,3.6837 C16.6814,3.5687 16.7594,3.4377 16.8224,3.3037 C16.8424,3.2617 16.8594,3.2197 16.8754,3.1767 C16.9234,3.0357 16.9594,2.8907 16.9614,2.7397 C16.9614,2.7327 16.9644,2.7257 16.9644,2.7187 C16.9644,2.6167 16.9494,2.5177 16.9244,2.4217 C16.9214,2.4097 16.9234,2.3977 16.9204,2.3857 C16.9144,2.3577 16.8964,2.3347 16.8874,2.3067 C16.8674,2.2477 16.8434,2.1897 16.8154,2.1337 C16.7934,2.0907 16.7734,2.0477 16.7474,2.0077 C16.6944,1.9247 16.6364,1.8457 16.5694,1.7737 C16.5224,1.7237 16.4724,1.6787 16.4224,1.6287 C16.1804,1.3857 15.9364,1.1407 15.6944,0.8987 C15.5204,0.7257 15.3494,0.5477 15.1724,0.3787 C15.1484,0.3547 15.1164,0.3427 15.0904,0.3207 C15.0704,0.3047 15.0524,0.2837 15.0304,0.2657 C15.0074,0.2497 14.9814,0.2457 14.9584,0.2297 C14.8654,0.1687 14.7694,0.1187 14.6664,0.0807 C14.6134,0.0617 14.5624,0.0457 14.5084,0.0337 C14.3954,0.0077 14.2844,-0.0013 14.1694,0.0007 C14.1384,0.0017 14.1094,-0.0003 14.0794,0.0037 C13.9434,0.0147 13.8144,0.0507 13.6864,0.1057 C13.6664,0.1147 13.6464,0.1207 13.6264,0.1307 C13.5894,0.1477 13.5494,0.1517 13.5154,0.1747 C13.4154,0.2357 13.3194,0.3147 13.2344,0.3967 C13.0424,0.5877 12.8514,0.7797 12.6614,0.9707 C12.2704,1.3607 11.8824,1.7497 11.4924,2.1387 L9.9724,3.6587 L8.3634,5.2677 Z" id="Fill-1"></path>
            <path d="M16.6885,7.2495 C16.5205,7.0815 16.2485,6.9565 16.0075,6.9685 C15.7595,6.9795 15.5015,7.0615 15.3265,7.2495 C15.1515,7.4425 15.0435,7.6765 15.0435,7.9365 L15.0435,8.6415 L15.0435,10.3215 L15.0435,12.3415 L15.0435,14.0715 C15.0435,14.3335 15.0455,14.5945 15.0435,14.8535 C15.0395,14.8775 15.0315,14.9015 15.0245,14.9255 C15.0155,14.9415 15.0055,14.9575 14.9965,14.9735 C14.9855,14.9845 14.9745,14.9965 14.9625,15.0075 C14.9475,15.0175 14.9305,15.0255 14.9145,15.0345 C14.9005,15.0395 14.8855,15.0435 14.8715,15.0465 C14.7605,15.0515 14.6495,15.0555 14.5405,15.0555 L13.6255,15.0555 L10.5675,15.0555 L6.8325,15.0555 L3.6325,15.0555 C3.1265,15.0555 2.6215,15.0575 2.1175,15.0555 C2.0925,15.0495 2.0685,15.0425 2.0445,15.0345 C2.0285,15.0255 2.0115,15.0175 1.9965,15.0075 L1.9625,14.9745 C1.9535,14.9575 1.9435,14.9415 1.9345,14.9255 C1.9305,14.9115 1.9265,14.8965 1.9225,14.8825 C1.9185,14.7715 1.9155,14.6605 1.9155,14.5515 L1.9155,13.6355 L1.9155,10.5775 L1.9155,6.8435 L1.9155,3.6435 C1.9155,3.1375 1.9135,2.6325 1.9155,2.1285 C1.9205,2.1035 1.9275,2.0795 1.9345,2.0555 C1.9435,2.0395 1.9535,2.0225 1.9625,2.0075 C1.9735,1.9955 1.9855,1.9845 1.9965,1.9735 C2.0115,1.9645 2.0285,1.9545 2.0445,1.9455 C2.0625,1.9405 2.0825,1.9355 2.1005,1.9305 C2.3125,1.9185 2.5295,1.9265 2.7405,1.9265 L4.3825,1.9265 L6.3995,1.9265 L8.1655,1.9265 C8.4515,1.9265 8.7385,1.9305 9.0245,1.9265 L9.0385,1.9265 C9.2845,1.9265 9.5435,1.8175 9.7185,1.6455 C9.8865,1.4785 10.0115,1.2045 10.0005,0.9645 C9.9885,0.7165 9.9075,0.4585 9.7185,0.2835 C9.5305,0.1105 9.2995,0.0035 9.0385,0.0035 L7.5635,0.0035 L4.5875,0.0035 L2.3285,0.0035 L2.1305,0.0035 C1.7635,0.0055 1.4225,0.0935 1.0995,0.2625 C0.4115,0.6205 0.0035,1.3805 0.0015,2.1415 L0.0015,3.3165 L0.0015,5.7335 L0.0015,8.7455 L0.0015,11.7025 L0.0015,13.9565 C0.0015,14.2595 -0.0015,14.5595 0.0015,14.8605 C0.0075,15.4225 0.2345,15.9895 0.6475,16.3785 C1.0475,16.7535 1.5635,16.9645 2.1115,16.9705 L2.3675,16.9705 L4.0555,16.9705 L6.7555,16.9705 L9.8305,16.9705 L12.6135,16.9705 L14.4625,16.9705 L14.8355,16.9705 C15.0595,16.9705 15.2925,16.9445 15.5015,16.8685 C16.0225,16.6805 16.5095,16.3215 16.7425,15.8035 C16.8845,15.4875 16.9685,15.1825 16.9685,14.8315 L16.9685,14.6185 L16.9685,13.6915 L16.9685,10.7915 L16.9685,8.3195 L16.9685,7.9305 C16.9685,7.6845 16.8615,7.4245 16.6885,7.2495" id="Fill-3"></path>
        </g>
    </g>
</svg>